# xmcd
#
# Track frame offsets: 
#        150
#        14803
#        26153
#        39768
#        50548
#        60889
#        69982
#        80931
#        91031
#        103941
#        113577
#
# Disc length: 1640 seconds
#
# Revision: 0
# Processed by: cddbd v1.5.2PL0 Copyright (c) Steve Scherf et al.
# Submitted via: ExactAudioCopy v0.95b3
#
DISCID=8706660b
DTITLE=Tommy Roe  - Phantasy
DYEAR=1900
DGENRE=
TTITLE0=Paisley Dreams
TTITLE1=Plastic World
TTITLE2=Melancholy Mood
TTITLE3=Visions
TTITLE4=Mystic Magic
TTITLE5=Little Miss Sunshine
TTITLE6=These Are The Children
TTITLE7=Goodbye Yesterday
TTITLE8=The Executive
TTITLE9=The You I Need
TTITLE10=It's Gonna Hurt Me
EXTD=
EXTT0=
EXTT1=
EXTT2=
EXTT3=
EXTT4=
EXTT5=
EXTT6=
EXTT7=
EXTT8=
EXTT9=
EXTT10=
PLAYORDER=
